# xmcd
#
# Track frame offsets: 
#        150
#        14915
#        36860
#        52507
#        66930
#        87947
#        110581
#        123227
#        140067
#        158106
#        180650
#        200145
#
# Disc length: 2891 seconds
#
# Revision: 0
# Processed by: cddbd v1.5.2PL0 Copyright (c) Steve Scherf et al.
# Submitted via: ExactAudioCopy v1.0b3
#
DISCID=aa0b490c
DTITLE=小林未郁 - Mika Type は [特別仕様版 限定500セット] Disk-2 【ウタウワタシ は】
DYEAR=2019
DGENRE=J-Pop
TTITLE0=LA VIRTUD 
TTITLE1=Dovunque sarai
TTITLE2=Raging
TTITLE3=ある日
TTITLE4=続きのない物語
TTITLE5=美しき肖像
TTITLE6=Sonetti Tuntemattomalle
TTITLE7=罪□□ Crime and Punishment
TTITLE8=DREAMLAND
TTITLE9=℃-Bon
TTITLE10=遠ざかる街
TTITLE11=どこにいても (おまけ)
EXTD=
EXTT0=
EXTT1=
EXTT2=
EXTT3=
EXTT4=
EXTT5=
EXTT6=
EXTT7=
EXTT8=
EXTT9=
EXTT10=
EXTT11=
PLAYORDER=
